arm26_states
version=1
nRows=11
nColumns=17
inDegrees=yes

# SIMM Motion File Header:
name arm26_states
datacolumns 17
datarows 11
otherdata 1
range 0.31578754 0.31690996
endheader
time	/jointset/r_shoulder/r_shoulder_elev/value	/jointset/r_shoulder/r_shoulder_elev/speed	/jointset/r_elbow/r_elbow_flex/value	/jointset/r_elbow/r_elbow_flex/speed	/forceset/TRIlong/activation	/forceset/TRIlong/fiber_length	/forceset/TRIlat/activation	/forceset/TRIlat/fiber_length	/forceset/TRImed/activation	/forceset/TRImed/fiber_length	/forceset/BIClong/activation	/forceset/BIClong/fiber_length	/forceset/BICshort/activation	/forceset/BICshort/fiber_length	/forceset/BRA/activation	/forceset/BRA/fiber_length
      0.31578754	     16.24811313	    378.89491867	    189.90161815	    491.81416257	     -0.00491553	      0.18861367	     -0.00491553	      0.11387754	     -0.00491553	      0.10878550	29949118364275822134982679088332140699232053420931772067062804923595028605664946823787782673937081619266390214063292829141790076730518303611764539219459314982844048080896.00000000	      0.04904284	54198852288689918979448261949618000466397335920872994793876781567594007460071971848236422595388339076348886397004140261854477646492241551075311616.00000000	      0.05441339	     -0.00491553	      0.04570644
      0.31591777	     16.29742690	    378.39102873	    189.96551126	    489.36447880	     -0.00493230	      0.18860765	     -0.00493230	      0.11386425	     -0.00493230	      0.10877179	29949118364275822134982679088332140699232053420931772067062804923595028605664946823787782673937081619266390214063292829141790076730518303611764539219459314982844048080896.00000000	      0.04906114	54198852288689918979448261949618000466397335920872994793876781567594007460071971848236422595388339076348886397004140261854477646492241551075311616.00000000	      0.05445623	     -0.00493230	      0.04567767
      0.31609459	     16.36426890	    377.69330921	    190.05174174	    486.03480572	     -0.00495506	      0.18861594	     -0.00495506	      0.11384630	     -0.00495506	      0.10875329	29949118364275822134982679088332140699232053420931772067062804923595028605664946823787782673937081619266390214063292829141790076730518303611764539219459314982844048080896.00000000	      0.04908595	54198852288689918979448261949618000466397335920872994793876781567594007460071971848236422595388339076348886397004140261854477646492241551075311616.00000000	      0.05451427	     -0.00495506	      0.04563860
      0.31621325	     16.40906004	    377.21991933	    190.10928443	    483.79609590	     -0.00497034	      0.18868104	     -0.00497034	      0.11383432	     -0.00497034	      0.10874093	29949118364275822134982679088332140699232053420931772067062804923595028605664946823787782673937081619266390214063292829141790076730518303611764539219459314982844048080896.00000000	      0.04910258	54198852288689918979448261949618000466397335920872994793876781567594007460071971848236422595388339076348886397004140261854477646492241551075311616.00000000	      0.05455314	     -0.00497034	      0.04561239
      0.31631031	     16.44565378	    376.84196614	    190.15615097	    481.95757318	     -0.00498283	      0.18870164	     -0.00498283	      0.11382456	     -0.00498283	      0.10873087	29949118364275822134982679088332140699232053420931772067062804923595028605664946823787782673937081619266390214063292829141790076730518303611764539219459314982844048080896.00000000	      0.04911618	54198852288689918979448261949618000466397335920872994793876781567594007460071971848236422595388339076348886397004140261854477646492241551075311616.00000000	      0.05458490	     -0.00498283	      0.04559094
      0.31638908	     16.47532508	    376.53610948	    190.19405499	    480.46274818	     -0.00499298	      0.18870842	     -0.00499298	      0.11381666	     -0.00499298	      0.10872272	29949118364275822134982679088332140699232053420931772067062804923595028605664946823787782673937081619266390214063292829141790076730518303611764539219459314982844048080896.00000000	      0.04912720	54198852288689918979448261949618000466397335920872994793876781567594007460071971848236422595388339076348886397004140261854477646492241551075311616.00000000	      0.05461064	     -0.00499298	      0.04557354
      0.31646784	     16.50497225	    376.22968641	    190.23184121	    478.96604801	     -0.00500312	      0.18870682	     -0.00500312	      0.11380878	     -0.00500312	      0.10871460	29949118364275822134982679088332140699232053420931772067062804923595028605664946823787782673937081619266390214063292829141790076730518303611764539219459314982844048080896.00000000	      0.04913821	54198852288689918979448261949618000466397335920872994793876781567594007460071971848236422595388339076348886397004140261854477646492241551075311616.00000000	      0.05463635	     -0.00500312	      0.04555614
      0.31654661	     16.53459517	    375.92252457	    190.26950949	    477.46756074	     -0.00501326	      0.18869650	     -0.00501326	      0.11380093	     -0.00501326	      0.10870651	29949118364275822134982679088332140699232053420931772067062804923595028605664946823787782673937081619266390214063292829141790076730518303611764539219459314982844048080896.00000000	      0.04914921	54198852288689918979448261949618000466397335920872994793876781567594007460071971848236422595388339076348886397004140261854477646492241551075311616.00000000	      0.05466203	     -0.00501326	      0.04553874
      0.31667073	     16.58122446	    375.42931187	    190.32862658	    475.10591538	     -0.00502924	      0.18869813	     -0.00502924	      0.11378857	     -0.00502924	      0.10869380	29949118364275822134982679088332140699232053420931772067062804923595028605664946823787782673937081619266390214063292829141790076730518303611764539219459314982844048080896.00000000	      0.04916652	54198852288689918979448261949618000466397335920872994793876781567594007460071971848236422595388339076348886397004140261854477646492241551075311616.00000000	      0.05470245	     -0.00502924	      0.04551131
      0.31675185	     16.61166424	    375.10314984	    190.36710222	    473.56138516	     -0.00503968	      0.18870516	     -0.00503968	      0.11378050	     -0.00503968	      0.10868552	29949118364275822134982679088332140699232053420931772067062804923595028605664946823787782673937081619266390214063292829141790076730518303611764539219459314982844048080896.00000000	      0.04917783	54198852288689918979448261949618000466397335920872994793876781567594007460071971848236422595388339076348886397004140261854477646492241551075311616.00000000	      0.05472882	     -0.00503968	      0.04549339
      0.31690996	     16.67092269	    374.46382286	    190.44174034	    470.54601242	     -0.00506004	      0.18876271	     -0.00506004	      0.11376479	     -0.00506004	      0.10866946	29949118364275822134982679088332140699232053420931772067062804923595028605664946823787782673937081619266390214063292829141790076730518303611764539219459314982844048080896.00000000	      0.04919982	54198852288689918979448261949618000466397335920872994793876781567594007460071971848236422595388339076348886397004140261854477646492241551075311616.00000000	      0.05478014	     -0.00506004	      0.04545846
